<svg width="32" height="32" viewBox="0 0 32 32" fill="none" xmlns="http://www.w3.org/2000/svg">
<g clip-path="url(#clip0_6001_573)">
<path d="M31.5482 5.33085C31.1257 4.68549 30.5086 4.66695 29.8052 4.64583C29.7256 4.64344 29.6448 4.64101 29.563 4.63764C29.5008 4.63478 29.4321 4.63588 29.3603 4.63703C29.0751 4.6416 28.7415 4.64695 28.5734 4.40788C28.3785 4.13072 28.397 3.5951 28.4122 3.15292C28.4171 3.01319 28.4216 2.88271 28.4189 2.77276C28.3915 1.74557 28.3344 0.654438 27.9369 0.289673C27.6371 0.0159959 26.7404 0.0539102 25.9134 0.0888763C25.6453 0.100211 25.3845 0.111237 25.1538 0.111237H7.55043C7.196 0.111237 6.82447 0.0824485 6.45943 0.0541627C5.74812 -0.000953545 5.06143 -0.0541626 4.5738 0.111237C3.8661 0.352451 3.81818 1.61998 3.77306 2.81355L3.77063 2.87777C3.73274 3.86311 3.48794 4.62343 2.67661 4.54684C1.73297 4.4592 0.793994 4.43157 0.367346 5.28348C-0.136536 6.29143 -0.0326164 7.34653 0.15352 9.23638C0.180109 9.50634 0.208375 9.79332 0.236787 10.0996H31.8204C31.8385 9.87574 31.8577 9.65472 31.8766 9.43728C32.0245 7.737 32.1534 6.25557 31.5482 5.33085Z" fill="#8047F8"/>
<path fill-rule="evenodd" clip-rule="evenodd" d="M2.69643 11.974C3.1897 18.6334 3.67759 25.3004 4.16549 31.9675L4.16579 31.9716C4.4307 35.5916 4.69561 39.2117 4.96139 42.8306H5.96915C6.03782 43.3971 6.11639 44.0964 6.19924 44.8337C6.3674 46.3304 6.55318 47.9839 6.70937 49H6.82083C7.84732 48.6253 14.9435 45.5997 14.9467 33.5541C14.9454 33.5198 14.9466 33.4854 14.9501 33.4513H13.197C13.1121 33.4505 13.0298 33.4223 12.9628 33.3709C12.8958 33.3195 12.8478 33.2478 12.8261 33.1669C12.6553 32.7459 12.5175 32.3126 12.4141 31.8708C11.3827 32.4519 10.5637 33.3391 10.0738 34.4061C9.60867 33.3133 9.54779 32.0941 9.90177 30.9616C10.2557 29.829 11.0021 28.8551 12.0103 28.2101C12.0233 24.6951 13.3426 21.3068 15.7186 18.6865L15.7557 18.654C15.8247 18.5945 15.9132 18.5613 16.0048 18.5606C16.0579 18.561 16.1102 18.5723 16.1586 18.5938C16.2076 18.6155 16.2514 18.6471 16.2872 18.6865C18.6909 21.3104 20.0033 24.7313 19.9625 28.267C20.9896 28.894 21.7511 29.8672 22.1057 31.0059C22.4604 32.1446 22.384 33.3715 21.8908 34.4589C21.4035 33.3902 20.5838 32.5022 19.5505 31.9236C19.4874 32.3518 19.3711 32.7707 19.2044 33.171C19.1467 33.3416 19.0313 33.4513 18.916 33.4513H17.0463C17.0493 33.4717 17.0514 33.4923 17.0526 33.5129L17.0533 33.5176V33.5275C17.0539 33.5453 17.054 33.5631 17.0533 33.5808C17.0789 45.9723 24.6237 48.7849 25.2597 49H25.4772C25.5328 48.024 25.7136 46.6773 25.8898 45.3643C26.0113 44.4595 26.1306 43.5708 26.2052 42.8306H27.2246C27.5509 38.2722 27.8865 33.7266 28.2221 29.1809L28.2223 29.1785L28.2224 29.1771C28.6517 23.3627 29.0809 17.5481 29.4908 11.7063H2.7617C2.68477 11.7213 2.69001 11.8469 2.69643 11.974ZM16.0048 18.5606L16.0029 18.5606H16.007L16.0048 18.5606Z" fill="#8047F8"/>
</g>
<defs>
<clipPath id="clip0_6001_573">
<rect width="32" height="32" fill="white"/>
</clipPath>
</defs>
</svg>
